HIERARCHY
ROOT root     
{
	OFFSET 0.0000 0.0000 0.0000
	CHANNELS 6 Xposition Yposition Zposition Zrotation Yrotation Xrotation
	JOINT pelvis   
	{
		OFFSET 0.0000 0.0000 0.0000
		CHANNELS 3 Zrotation Yrotation Xrotation
		JOINT thorax   
		{
			OFFSET 0.0000 23.0750 -5.0000
			CHANNELS 3 Zrotation Yrotation Xrotation
			JOINT rclavicle
			{
				OFFSET 0.0000 28.0009 0.0000
				CHANNELS 3 Zrotation Yrotation Xrotation
				JOINT rhumerus 
				{
					OFFSET -18.5725 5.5939 0.0000
					CHANNELS 3 Zrotation Yrotation Xrotation
					JOINT rradius  
					{
						OFFSET -24.8459 0.0000 0.0000
						CHANNELS 3 Zrotation Yrotation Xrotation
						JOINT rhand    
						{
							OFFSET -24.5477 0.0000 0.0000
							CHANNELS 3 Zrotation Yrotation Xrotation
							End Site
							{
								OFFSET -8.1826 0.0000 0.0000
							}
						}
					}
				}
			}
			JOINT lclavicle
			{
				OFFSET 0.0000 28.0009 0.0000
				CHANNELS 3 Zrotation Yrotation Xrotation
				JOINT lhumerus 
				{
					OFFSET 18.5725 5.5939 0.0000
					CHANNELS 3 Zrotation Yrotation Xrotation
					JOINT lradius  
					{
						OFFSET 24.8459 0.0000 0.0000
						CHANNELS 3 Zrotation Yrotation Xrotation
						JOINT lhand    
						{
							OFFSET 24.5477 0.0000 0.0000
							CHANNELS 3 Zrotation Yrotation Xrotation
							End Site
							{
								OFFSET 8.1826 0.0000 0.0000
							}
						}
					}
				}
			}
			JOINT head     
			{
				OFFSET 0.0000 35.2030 0.0000
				CHANNELS 3 Zrotation Yrotation Xrotation
				End Site
				{
					OFFSET 0.0000 11.7343 0.0000
				}
			}
		}
		JOINT rfemur   
		{
			OFFSET -8.2817 0.0000 0.0000
			CHANNELS 3 Zrotation Yrotation Xrotation
			JOINT rtibia   
			{
				OFFSET 0.0000 -43.3627 0.0000
				CHANNELS 3 Zrotation Yrotation Xrotation
				JOINT rfoot    
				{
					OFFSET 0.0000 -38.2947 0.0000
					CHANNELS 3 Zrotation Yrotation Xrotation
					JOINT rtoes    
					{
						OFFSET 0.0000 0.0000 16.6054
						CHANNELS 3 Zrotation Yrotation Xrotation
						End Site
						{
							OFFSET 0.0000 0.0000 5.5351
						}
					}
				}
			}
		}
		JOINT lfemur   
		{
			OFFSET 8.2817 0.0000 0.0000
			CHANNELS 3 Zrotation Yrotation Xrotation
			JOINT ltibia   
			{
				OFFSET 0.0000 -43.3627 0.0000
				CHANNELS 3 Zrotation Yrotation Xrotation
				JOINT lfoot    
				{
					OFFSET 0.0000 -38.2947 0.0000
					CHANNELS 3 Zrotation Yrotation Xrotation
					JOINT ltoes    
					{
						OFFSET 0.0000 0.0000 16.6054
						CHANNELS 3 Zrotation Yrotation Xrotation
						End Site
						{
							OFFSET 0.0000 0.0000 5.5351
						}
					}
				}
			}
		}
	}
}
MOTION
Frames: 15
Frame Time: .0333333
13.929 84.33 -8.1141 3.5644 84.0327 25.6019 0 -0 0 11.3215 -18.7294 -11.5139 24.9533 -10.9695 -4.16258e-05 45.5716 -0.683894 -24.0509 -4.73582e-06 83.5129 -4.9846e-06 -1.76445 3.21365 -0.0494996 -22.2338 10.9011 -5.3746e-05 -31.569 -8.14231 5.22727 180 -66.3726 -180 0.309805 -0.250197 -0.000700014 -1.95425 3.07699 -19.3901 5.41316 -3.45625 -41.6992 -0 -0 29.1708 1.83292e-07 0.679094 1.46054 0.0172996 -1.48797e-07 -51.4418 1.15251 12.2501 6.54711 -0 -0 17.044 -3.66655e-05 -5.13301 30.8717 -2.63903 1.7913e-05 -67.7409 
15.612 83.794 -7.9447 5.92318 83.7109 27.7138 0 -0 0 11.2968 -18.7993 -11.6327 24.9663 -10.7738 4.23951e-05 45.6373 -0.34492 -25.1592 -4.47816e-06 83.1499 -4.72699e-06 -2.48485 3.21831 -0.0698018 -22.6095 11.0897 -7.83424e-06 -30.5273 -7.65566 3.77749 180 -66.4123 180 0.615003 -0.421898 -0.00229999 -3.64365 3.32117 -19.2738 4.88623 -3.03047 -42.0191 -0 -0 32.3762 1.20911e-07 1.1204 -0.302994 -0.00590001 -5.1211e-08 -45.3188 1.17346 12.2113 7.02243 -0 -0 18.3717 -1.27366e-05 -5.80328 31.8632 -3.07116 5.16315e-05 -66.2434 
17.295 83.267 -7.758 7.90235 83.5015 29.4159 0 -0 0 11.2865 -18.904 -11.7143 25.03 -10.5481 -6.19303e-05 45.7258 0.033722 -26.2679 -4.47985e-06 82.6668 -4.63642e-06 -3.36009 3.28105 -0.0963015 -22.9947 11.2525 -3.07649e-05 -29.6596 -7.12721 2.43071 180 -66.6364 180 1.10699 -0.626595 -0.0060999 -5.31658 3.56316 -19.1294 4.42257 -2.72774 -42.1418 -0 -0 35.6141 5.12405e-08 1.49268 -2.35777 -0.0613991 5.74998e-07 -38.7812 1.29777 12.0959 7.37122 -0 -0 19.9081 8.14492e-05 -6.44334 32.9019 -3.51046 -2.773e-05 -64.6933 
18.971 82.769 -7.5469 9.34051 83.415 30.5652 0 -0 0 11.3323 -19.0205 -11.7632 25.1313 -10.295 -3.13518e-05 45.8604 0.45738 -27.3743 -0 82.0588 -0 -4.42018 3.41989 -0.132 -23.3922 11.396 -8.73909e-06 -28.9957 -6.57953 1.2117 -180 -67.0482 180 1.76059 -0.842198 -0.0129001 -6.97118 3.80337 -18.9709 4.0748 -2.52831 -42.0136 -0 -0 38.6213 5.17046e-07 1.75068 -4.54033 -0.138597 9.14028e-07 -32.5573 1.56451 11.96 7.5537 -0 -0 21.6683 7.36453e-05 -7.02178 33.9179 -3.93178 -4.03362e-05 -62.9073 
20.631 82.315 -7.3092 10.1495 83.4448 31.095 0 -0 0 11.4521 -19.1187 -11.7885 25.2599 -10.015 6.02997e-05 46.0582 0.919305 -28.4751 -1.84507e-06 81.3307 -2.14778e-06 -5.69134 3.63954 -0.181 -23.8053 11.5239 -7.96887e-05 -28.5605 -6.03526 0.136906 -180 -67.6543 180 2.5368 -1.0472 -0.0232002 -8.59991 4.04084 -18.8076 3.87463 -2.41652 -41.6185 -0 -0 41.2053 1.27908e-06 1.86918 -6.71125 -0.218501 3.58557e-07 -27.307 1.97779 11.8227 7.53776 -0 -0 23.6379 6.17723e-05 -7.45909 34.8607 -4.27977 -2.87327e-05 -60.9817 
22.267 81.92 -7.0454 10.2807 83.5637 30.9802 0 -0 0 11.6494 -19.1696 -11.8062 25.4073 -9.71207 2.26376e-05 46.3447 1.41344 -29.5659 -0 80.4927 -0 -7.19192 3.93201 -0.247196 -24.2265 11.6408 -3.94384e-05 -28.3662 -5.51495 -0.784749 180 -68.4574 180 3.39007 -1.22322 -0.0361998 -10.191 4.27475 -18.6447 3.83335 -2.37225 -40.9707 -0 -0 43.2479 -3.72689e-06 1.83524 -8.77056 -0.279902 4.54699e-07 -23.411 2.52214 11.6946 7.29304 -0 -0 25.8001 -3.7941e-05 -7.67153 35.6654 -4.49054 5.49535e-05 -58.9994 
23.874 81.593 -6.7589 9.74191 83.7621 30.2429 0 -0 0 11.9048 -19.1454 -11.8291 25.5606 -9.39274 1.04895e-05 46.7385 1.93029 -30.635 -3.1256e-06 79.5597 -3.28249e-06 -8.92884 4.27832 -0.334193 -24.6447 11.7495 5.89531e-05 -28.4171 -5.03386 -1.5516 180 -69.4521 -180 4.27322 -1.3546 -0.0504986 -11.7285 4.50463 -18.4821 3.93885 -2.37618 -40.1042 -0 -0 44.6968 3.83809e-07 1.65181 -10.6538 -0.305504 -1.06685e-06 -20.9681 3.15982 11.5738 6.80221 -0 -0 28.127 4.47741e-05 -7.57948 36.2647 -4.50042 -1.03682e-05 -57.053 
25.448 81.341 -6.4564 8.67794 83.9983 29.0383 0 -0 0 12.1759 -19.0307 -11.8656 25.7127 -9.06457 3.75558e-05 47.258 2.45839 -31.6679 -0 78.5491 -0 -10.8923 4.65108 -0.443705 -25.0441 11.8523 -6.28046e-05 -28.7029 -4.60245 -2.16836 180 -70.6357 -180 5.14309 -1.42733 -0.0641008 -13.1884 4.73102 -18.3171 4.1569 -2.41198 -39.0614 -0 -0 45.5534 2.05129e-06 1.33735 -12.3179 -0.285396 1.83926e-06 -19.8978 3.83529 11.4454 6.06274 -0 -0 30.5855 -7.28592e-05 -7.1243 36.596 -4.26141 3.85692e-05 -55.1953 
26.991 81.165 -6.1437 7.21197 84.2338 27.493 0 -0 0 12.4226 -18.8129 -11.9169 25.8544 -8.73703 -4.4597e-05 47.909 2.98924 -32.6417 -8.71292e-07 77.479 -1.08602e-06 -13.0514 5.01831 -0.574388 -25.4079 11.9516 -0.000115551 -29.1984 -4.22583 -2.64714 180 -72.0075 180 5.96374 -1.42901 -0.0743995 -14.5527 4.95528 -18.1473 4.44866 -2.45696 -37.8762 -0 -0 45.8464 -1.38401e-06 0.916093 -13.7248 -0.217402 8.91454e-07 -20.0145 4.49767 11.2947 5.0891 -0 -0 33.1313 4.77321e-05 -6.28177 36.6144 -3.75631 -5.44127e-05 -53.6292 
28.503 81.065 -5.8306 5.72155 84.4586 25.9772 0 -0 0 12.5817 -18.4903 -11.9849 25.9817 -8.41691 3.47898e-05 48.6918 3.50699 -33.531 -1.11987e-06 76.3694 -1.42387e-06 -15.3496 5.35004 -0.721517 -25.7212 12.0489 7.71385e-05 -29.8634 -3.90376 -3.00174 -180 -73.5504 180 6.71049 -1.34715 -0.0789954 -15.7966 5.17981 -17.9675 4.75434 -2.49827 -36.5889 -0 -0 45.6453 -8.33027e-07 0.426397 -14.8502 -0.109298 4.61621e-07 -21.0433 5.07989 11.1062 3.89752 -0 -0 35.7279 1.40696e-05 -5.06544 36.2686 -3.00163 2.45638e-05 -52.2445 
29.988 81.036 -5.5261 4.58398 84.6559 24.8593 0 -0 0 12.5993 -18.0685 -12.0642 26.096 -8.10969 -3.12341e-05 49.594 3.9975 -34.3022 -1.02231e-06 75.2343 -1.32669e-06 -17.7048 5.62187 -0.876215 -25.9731 12.1496 4.38042e-05 -30.6491 -3.63314 -3.24955 180 -75.2524 -180 7.36888 -1.17181 -0.0755006 -16.8999 5.40728 -17.7784 5.01844 -2.52085 -35.2337 -0 -0 45.0349 3.90067e-07 -0.0937996 -15.6837 0.0254004 9.3713e-08 -22.6086 5.52783 10.8664 2.51499 -0 -0 38.3316 4.70066e-06 -3.51958 35.5407 -2.04761 2.42247e-06 -51.0903 
31.449 81.074 -5.2344 4.09037 84.8015 24.4308 0 -0 0 12.4528 -17.5585 -12.1517 26.1926 -7.82424 -3.69724e-05 50.5952 4.45608 -34.9151 -1.24195e-06 74.0754 -9.37157e-07 -20.0177 5.82081 -1.02819 -26.1659 12.2561 -5.01744e-05 -31.4965 -3.40706 -3.41028 180 -77.0915 180 7.93391 -0.8975 -0.0622014 -17.8554 5.63931 -17.5864 5.20513 -2.49918 -33.8333 -0 -0 44.1011 -2.66856e-06 -0.621397 -16.2254 0.1736 -2.2712e-07 -24.2977 5.81963 10.5764 0.964314 -0 -0 40.9095 -1.82304e-05 -1.72445 34.428 -0.975075 -2.97732e-06 -50.0809 
32.889 81.174 -4.9639 4.62559 84.8885 25.0662 0 -0 0 12.1034 -16.976 -12.2406 26.2746 -7.55665 -3.08885e-05 51.6663 4.85951 -35.3296 -8.6272e-07 72.9023 -1.16797e-06 -22.1794 5.94382 -1.16599 -26.2992 12.3707 -4.83563e-05 -32.3457 -3.21963 -3.49993 180 -79.0497 -180 8.40758 -0.522896 -0.0383996 -18.6558 5.87613 -17.3952 5.26804 -2.42861 -32.4136 -0 -0 42.9501 2.08527e-06 -1.12641 -16.4958 0.319902 7.7661e-07 -25.7472 5.91774 10.2277 -0.728327 -0 -0 43.4226 -3.78402e-07 0.248096 32.9615 0.135004 2.02211e-06 -49.1763 
34.311 81.331 -4.718 6.35645 84.9309 26.9209 0 -0 0 11.5457 -16.3423 -12.3235 26.3391 -7.31059 -2.47801e-05 52.7743 5.2029 -35.4996 -7.96984e-07 71.7154 -1.10272e-06 -24.084 6.00023 -1.2811 -26.3809 12.4958 2.15288e-05 -33.1409 -3.06299 -3.53365 -180 -81.1006 180 8.79747 -0.0561996 -0.00430008 -19.302 6.11471 -17.219 5.18716 -2.30146 -30.995 -0 -0 41.6735 4.37457e-06 -1.59634 -16.5096 0.453802 1.69504e-06 -26.745 5.81678 9.82422 -2.54214 -0 -0 45.8403 -1.01209e-05 2.31878 31.1861 1.20121 4.15647e-06 -48.2761 
35.718 81.54 -4.4992 9.24819 84.8956 29.9633 0 -0 0 10.7865 -15.6743 -12.3905 26.3869 -7.08483 -3.31554e-05 53.8828 5.47949 -35.3823 -0 70.5035 -0 -25.6376 6.00574 -1.3677 -26.4227 12.6297 -1.15787e-06 -33.8356 -2.93071 -3.52379 -180 -83.2113 180 9.11121 0.485103 0.0386005 -19.804 6.34945 -17.0712 4.95639 -2.12208 -29.5943 -0 -0 40.3505 2.26618e-06 -2.023 -16.2903 0.567691 -9.2865e-07 -27.2447 5.52248 9.37096 -4.45681 -0 -0 48.1309 2.59637e-05 4.4229 29.1715 2.159 -4.38106e-06 -47.3195 
